<?xml version="1.0" standalone="no"?>
<!DOCTYPE svg PUBLIC "-//W3C//DTD SVG 20010904//EN"
 "http://www.w3.org/TR/2001/REC-SVG-20010904/DTD/svg10.dtd">
<svg version="1.0" xmlns="http://www.w3.org/2000/svg"
 width="270.000000pt" height="270.000000pt" viewBox="0 0 270.000000 270.000000"
 preserveAspectRatio="xMidYMid meet">
<metadata>
Created by potrace 1.11, written by Peter Selinger 2001-2013
</metadata>
<g transform="translate(0.000000,270.000000) scale(0.100000,-0.100000)"
fill="#000000" stroke="none">
<path d="M1064 1915 c-384 -57 -675 -218 -781 -433 -39 -79 -40 -191 -2 -272
78 -168 273 -306 545 -385 174 -51 302 -68 514 -68 209 0 314 12 488 58 280
74 491 215 573 381 60 122 43 251 -49 371 -134 177 -415 306 -765 353 -107 14
-412 11 -523 -5z m516 -69 c358 -43 646 -189 736 -372 199 -406 -539 -754
-1311 -619 -191 34 -399 121 -508 214 -106 89 -149 167 -150 271 -5 335 596
582 1233 506z"/>
<path d="M1005 1708 c-33 -103 -54 -134 -101 -154 -18 -8 -129 -28 -246 -44
-117 -17 -214 -33 -217 -35 -7 -8 22 -13 219 -40 107 -14 212 -30 232 -36 59
-15 81 -52 113 -185 15 -66 31 -123 36 -128 4 -5 12 9 18 30 5 22 19 73 30
114 39 149 52 162 192 184 202 32 394 48 481 42 137 -10 153 -20 174 -109 10
-44 20 -40 37 17 10 30 23 59 30 65 7 5 47 15 88 22 108 16 114 25 28 38 -110
18 -126 26 -145 77 -9 24 -20 44 -23 44 -4 0 -13 -19 -21 -42 -20 -58 -47 -69
-188 -75 -91 -4 -163 1 -321 21 -112 15 -217 33 -235 40 -48 20 -68 50 -102
149 -16 50 -34 92 -40 94 -5 1 -22 -39 -39 -89z"/>
<path d="M1614 1358 c-19 -51 -21 -53 -69 -65 -28 -6 -76 -14 -109 -18 -77 -9
-61 -22 44 -36 47 -6 92 -15 100 -19 9 -5 24 -34 34 -64 9 -31 21 -54 25 -51
5 2 14 25 20 50 7 27 20 50 34 59 36 23 192 39 265 27 76 -12 85 -19 101 -71
14 -47 26 -45 35 4 9 45 22 55 98 68 34 6 67 15 72 19 4 4 -18 12 -50 19 -86
16 -103 26 -121 67 -14 35 -16 36 -29 18 -8 -10 -14 -25 -14 -32 0 -40 -129
-66 -250 -51 -99 12 -121 24 -140 75 -8 23 -18 44 -21 48 -4 3 -15 -18 -25
-47z"/>
<path d="M1295 1145 c-9 -25 -25 -50 -36 -55 -10 -6 -56 -15 -101 -21 -124
-15 -122 -24 10 -43 49 -8 95 -17 100 -20 6 -4 18 -31 27 -61 8 -30 19 -55 23
-55 5 0 14 22 21 49 7 28 19 55 26 61 8 6 56 18 107 26 74 12 109 13 172 5 86
-12 111 -27 121 -72 9 -42 22 -44 35 -5 17 52 40 67 127 78 43 6 82 14 86 18
5 4 -31 13 -80 20 -48 7 -95 16 -104 21 -8 4 -21 27 -28 49 -14 47 -18 46 -46
-13 -20 -41 -21 -42 -95 -55 -81 -15 -238 -5 -280 18 -12 7 -31 32 -41 56 -11
24 -21 44 -23 44 -2 0 -11 -20 -21 -45z"/>
</g>
</svg>
